<mxfile host="app.diagrams.net" modified="2023-11-04T19:57:47.870Z" agent="Mozilla/5.0 (Windows NT 10.0; Win64; x64) AppleWebKit/537.36 (KHTML, like Gecko) Chrome/118.0.0.0 Safari/537.36" etag="SERF7lP1nWmYy-h6Yxs5" version="22.0.8" type="device">
  <diagram id="C5RBs43oDa-KdzZeNtuy" name="Page-1">
    <mxGraphModel dx="1434" dy="900" grid="1" gridSize="10" guides="1" tooltips="1" connect="1" arrows="1" fold="1" page="1" pageScale="1" pageWidth="827" pageHeight="1169" math="0" shadow="0">
      <root>
        <mxCell id="WIyWlLk6GJQsqaUBKTNV-0" />
        <mxCell id="WIyWlLk6GJQsqaUBKTNV-1" parent="WIyWlLk6GJQsqaUBKTNV-0" />
        <mxCell id="my6pHQ4Ds8vepXd4x40N-0" value="abstract class&lt;br&gt;Animal" style="rounded=0;whiteSpace=wrap;html=1;" parent="WIyWlLk6GJQsqaUBKTNV-1" vertex="1">
          <mxGeometry x="354" y="110" width="120" height="60" as="geometry" />
        </mxCell>
        <mxCell id="my6pHQ4Ds8vepXd4x40N-9" style="edgeStyle=orthogonalEdgeStyle;rounded=0;orthogonalLoop=1;jettySize=auto;html=1;exitX=0.5;exitY=1;exitDx=0;exitDy=0;entryX=0;entryY=0.5;entryDx=0;entryDy=0;" parent="WIyWlLk6GJQsqaUBKTNV-1" source="my6pHQ4Ds8vepXd4x40N-1" target="my6pHQ4Ds8vepXd4x40N-0" edge="1">
          <mxGeometry relative="1" as="geometry" />
        </mxCell>
        <mxCell id="my6pHQ4Ds8vepXd4x40N-1" value="abstract class&lt;br&gt;Pet" style="rounded=0;whiteSpace=wrap;html=1;direction=west;" parent="WIyWlLk6GJQsqaUBKTNV-1" vertex="1">
          <mxGeometry x="149" y="200" width="120" height="60" as="geometry" />
        </mxCell>
        <mxCell id="my6pHQ4Ds8vepXd4x40N-11" style="edgeStyle=orthogonalEdgeStyle;rounded=0;orthogonalLoop=1;jettySize=auto;html=1;exitX=0.5;exitY=1;exitDx=0;exitDy=0;entryX=1;entryY=0.5;entryDx=0;entryDy=0;" parent="WIyWlLk6GJQsqaUBKTNV-1" source="my6pHQ4Ds8vepXd4x40N-10" target="my6pHQ4Ds8vepXd4x40N-0" edge="1">
          <mxGeometry relative="1" as="geometry" />
        </mxCell>
        <mxCell id="my6pHQ4Ds8vepXd4x40N-10" value="abstract class&lt;br&gt;PackAnimal" style="rounded=0;whiteSpace=wrap;html=1;direction=west;" parent="WIyWlLk6GJQsqaUBKTNV-1" vertex="1">
          <mxGeometry x="562" y="200" width="120" height="60" as="geometry" />
        </mxCell>
        <mxCell id="my6pHQ4Ds8vepXd4x40N-15" style="edgeStyle=orthogonalEdgeStyle;rounded=0;orthogonalLoop=1;jettySize=auto;html=1;exitX=0.5;exitY=1;exitDx=0;exitDy=0;entryX=1;entryY=0.5;entryDx=0;entryDy=0;" parent="WIyWlLk6GJQsqaUBKTNV-1" source="my6pHQ4Ds8vepXd4x40N-12" target="my6pHQ4Ds8vepXd4x40N-1" edge="1">
          <mxGeometry relative="1" as="geometry" />
        </mxCell>
        <mxCell id="my6pHQ4Ds8vepXd4x40N-12" value="class&lt;br&gt;Dog" style="rounded=0;whiteSpace=wrap;html=1;direction=west;" parent="WIyWlLk6GJQsqaUBKTNV-1" vertex="1">
          <mxGeometry x="17" y="320" width="120" height="60" as="geometry" />
        </mxCell>
        <mxCell id="my6pHQ4Ds8vepXd4x40N-16" style="edgeStyle=orthogonalEdgeStyle;rounded=0;orthogonalLoop=1;jettySize=auto;html=1;exitX=0.5;exitY=1;exitDx=0;exitDy=0;entryX=0.5;entryY=0;entryDx=0;entryDy=0;" parent="WIyWlLk6GJQsqaUBKTNV-1" source="my6pHQ4Ds8vepXd4x40N-13" target="my6pHQ4Ds8vepXd4x40N-1" edge="1">
          <mxGeometry relative="1" as="geometry" />
        </mxCell>
        <mxCell id="my6pHQ4Ds8vepXd4x40N-13" value="class&lt;br&gt;Cat" style="rounded=0;whiteSpace=wrap;html=1;direction=west;" parent="WIyWlLk6GJQsqaUBKTNV-1" vertex="1">
          <mxGeometry x="149" y="320" width="120" height="60" as="geometry" />
        </mxCell>
        <mxCell id="my6pHQ4Ds8vepXd4x40N-17" style="edgeStyle=orthogonalEdgeStyle;rounded=0;orthogonalLoop=1;jettySize=auto;html=1;exitX=0.5;exitY=1;exitDx=0;exitDy=0;entryX=0;entryY=0.5;entryDx=0;entryDy=0;" parent="WIyWlLk6GJQsqaUBKTNV-1" source="my6pHQ4Ds8vepXd4x40N-14" target="my6pHQ4Ds8vepXd4x40N-1" edge="1">
          <mxGeometry relative="1" as="geometry" />
        </mxCell>
        <mxCell id="my6pHQ4Ds8vepXd4x40N-14" value="class&lt;br&gt;Hamster" style="rounded=0;whiteSpace=wrap;html=1;direction=west;" parent="WIyWlLk6GJQsqaUBKTNV-1" vertex="1">
          <mxGeometry x="281" y="320" width="120" height="60" as="geometry" />
        </mxCell>
        <mxCell id="my6pHQ4Ds8vepXd4x40N-26" style="edgeStyle=orthogonalEdgeStyle;rounded=0;orthogonalLoop=1;jettySize=auto;html=1;exitX=0.5;exitY=1;exitDx=0;exitDy=0;entryX=1;entryY=0.5;entryDx=0;entryDy=0;" parent="WIyWlLk6GJQsqaUBKTNV-1" source="my6pHQ4Ds8vepXd4x40N-21" target="my6pHQ4Ds8vepXd4x40N-10" edge="1">
          <mxGeometry relative="1" as="geometry" />
        </mxCell>
        <mxCell id="my6pHQ4Ds8vepXd4x40N-21" value="class&lt;br&gt;Horse" style="rounded=0;whiteSpace=wrap;html=1;direction=west;" parent="WIyWlLk6GJQsqaUBKTNV-1" vertex="1">
          <mxGeometry x="430" y="320" width="120" height="60" as="geometry" />
        </mxCell>
        <mxCell id="my6pHQ4Ds8vepXd4x40N-24" style="edgeStyle=orthogonalEdgeStyle;rounded=0;orthogonalLoop=1;jettySize=auto;html=1;exitX=0.5;exitY=1;exitDx=0;exitDy=0;entryX=0.5;entryY=0;entryDx=0;entryDy=0;" parent="WIyWlLk6GJQsqaUBKTNV-1" source="my6pHQ4Ds8vepXd4x40N-22" target="my6pHQ4Ds8vepXd4x40N-10" edge="1">
          <mxGeometry relative="1" as="geometry" />
        </mxCell>
        <mxCell id="my6pHQ4Ds8vepXd4x40N-22" value="class&lt;br&gt;Camel" style="rounded=0;whiteSpace=wrap;html=1;direction=west;" parent="WIyWlLk6GJQsqaUBKTNV-1" vertex="1">
          <mxGeometry x="562" y="320" width="120" height="60" as="geometry" />
        </mxCell>
        <mxCell id="my6pHQ4Ds8vepXd4x40N-29" style="edgeStyle=orthogonalEdgeStyle;rounded=0;orthogonalLoop=1;jettySize=auto;html=1;exitX=0.5;exitY=1;exitDx=0;exitDy=0;entryX=0;entryY=0.5;entryDx=0;entryDy=0;" parent="WIyWlLk6GJQsqaUBKTNV-1" source="my6pHQ4Ds8vepXd4x40N-23" target="my6pHQ4Ds8vepXd4x40N-10" edge="1">
          <mxGeometry relative="1" as="geometry" />
        </mxCell>
        <mxCell id="my6pHQ4Ds8vepXd4x40N-23" value="class&lt;br&gt;Donkey" style="rounded=0;whiteSpace=wrap;html=1;direction=west;" parent="WIyWlLk6GJQsqaUBKTNV-1" vertex="1">
          <mxGeometry x="694" y="320" width="120" height="60" as="geometry" />
        </mxCell>
      </root>
    </mxGraphModel>
  </diagram>
</mxfile>
